<svg width="550" height="89" viewBox="0 0 550 89" fill="none" xmlns="http://www.w3.org/2000/svg">
<path d="M35.312 80.04C31.216 82.472 26.8 83.688 22.064 83.688C17.328 83.688 13.712 82.92 11.216 81.384C8.72 79.912 7.472 78.024 7.472 75.72C7.472 73.48 8.368 71.656 10.16 70.248C12.016 68.904 14.768 68.232 18.416 68.232C23.408 68.232 27.888 70.088 31.856 73.8C32.624 71.432 33.264 68.808 33.776 65.928L34.352 62.376H30.32V60.264H34.736L42.032 18.6C42.352 16.232 42.8 14.312 43.376 12.84C30.128 13.864 19.888 16.68 12.656 21.288C5.488 25.832 1.904 31.816 1.904 39.24C1.904 42.568 3.056 45.384 5.36 47.688C6.96 49.224 9.072 50.408 11.696 51.24C14.32 52.008 16.464 52.456 18.128 52.584C19.856 52.648 20.784 52.616 20.912 52.488V54.504C13.36 54.504 7.76 52.712 4.112 49.128C1.424 46.632 0.0800004 43.336 0.0800004 39.24C0.0800004 31.112 3.888 24.616 11.504 19.752C19.12 14.824 30 11.88 44.144 10.92C47.152 4.2 52.752 0.839996 60.944 0.839996V3.336C59.344 3.528 58.224 4.168 57.584 5.256C57.008 6.344 56.496 8.104 56.048 10.536C61.36 10.6 65.904 11.272 69.68 12.552C73.52 13.768 76.432 15.4 78.416 17.448C82.192 21.352 84.08 25.928 84.08 31.176C84.08 35.208 83.312 38.888 81.776 42.216C80.304 45.48 78.416 48.168 76.112 50.28C73.808 52.392 70.992 54.216 67.664 55.752C62.16 58.376 55.536 60.232 47.792 61.32V61.512C46.448 69 42.864 74.792 37.04 78.888C39.664 81.256 42.544 83.112 45.68 84.456C48.816 85.8 52.848 86.472 57.776 86.472V88.584C52.464 88.584 48.08 87.816 44.624 86.28C41.232 84.808 38.128 82.728 35.312 80.04ZM81.584 31.176C81.584 25.544 79.44 21.032 75.152 17.64C70.928 14.248 64.496 12.488 55.856 12.36C53.488 29.768 50.96 45.352 48.272 59.112C70.48 55.912 81.584 46.6 81.584 31.176ZM31.088 75.912C29.04 73.992 27.088 72.52 25.232 71.496C23.376 70.536 21.104 70.056 18.416 70.056C15.792 70.056 13.68 70.536 12.08 71.496C10.544 72.52 9.776 73.896 9.776 75.624C9.776 77.416 10.8 78.888 12.848 80.04C14.896 81.256 17.36 81.864 20.24 81.864C23.12 81.864 25.392 81.448 27.056 80.616C28.784 79.784 30.128 78.216 31.088 75.912ZM123.82 67.944C125.356 67.944 126.956 67.048 128.62 65.256L130.06 66.408C129.612 67.304 128.62 68.104 127.084 68.808C125.548 69.512 123.852 69.864 121.996 69.864C116.172 69.864 113.26 67.24 113.26 61.992C113.26 59.752 113.836 55.752 114.988 49.992C116.14 44.232 116.716 40.456 116.716 38.664C116.716 35.912 115.404 34.536 112.78 34.536C110.604 34.536 108.492 36.008 106.444 38.952C104.46 41.896 102.828 45.896 101.548 50.952L98.3803 69H86.8603L97.5163 8.712C95.5963 8.904 93.9963 9.8 92.7163 11.4L91.2763 10.248C93.1963 7.944 95.5963 6.792 98.4763 6.792C101.42 6.792 103.692 7.528 105.292 9C106.892 10.472 107.692 12.552 107.692 15.24C107.692 15.752 107.628 16.584 107.5 17.736L103.468 40.488C106.092 34.6 110.156 31.656 115.66 31.656C119.436 31.656 122.38 32.744 124.492 34.92C126.604 37.032 127.66 39.976 127.66 43.752C127.66 45.736 127.052 49.576 125.836 55.272C124.62 60.904 123.948 65.128 123.82 67.944ZM149.674 69.864C144.746 69.864 141.002 68.648 138.442 66.216C135.882 63.72 134.602 60.616 134.602 56.904C134.602 53.128 134.922 49.928 135.562 47.304C136.266 44.616 137.386 42.056 138.922 39.624C140.458 37.128 142.762 35.176 145.834 33.768C148.97 32.36 152.842 31.656 157.45 31.656C162.122 31.656 165.738 32.904 168.298 35.4C170.922 37.832 172.234 41.192 172.234 45.48C172.234 52.776 170.282 58.664 166.378 63.144C162.538 67.624 156.97 69.864 149.674 69.864ZM145.45 59.976C145.45 65.096 146.922 67.656 149.866 67.656C152.874 67.656 155.53 65.096 157.834 59.976C160.202 54.792 161.386 48.648 161.386 41.544C161.386 36.168 159.914 33.48 156.97 33.48C154.09 33.48 151.434 35.944 149.002 40.872C146.634 45.736 145.45 52.104 145.45 59.976ZM197.713 31.656C205.841 31.656 209.905 34.888 209.905 41.352C209.905 45.384 207.985 48.456 204.145 50.568C200.369 52.616 194.961 53.672 187.921 53.736C187.793 56.04 187.729 57.864 187.729 59.208C187.729 62.088 188.369 64.232 189.649 65.64C190.993 66.984 192.657 67.656 194.641 67.656C196.625 67.656 198.417 67.272 200.017 66.504C201.681 65.736 202.993 64.84 203.953 63.816C204.913 62.728 205.745 61.608 206.449 60.456C207.729 58.344 208.369 57 208.369 56.424L210.097 57.192C209.905 58.216 209.329 59.592 208.369 61.32C207.409 62.984 206.353 64.36 205.201 65.448C204.049 66.536 202.353 67.56 200.113 68.52C197.873 69.416 195.377 69.864 192.625 69.864C187.441 69.864 183.505 68.648 180.817 66.216C178.193 63.72 176.881 60.328 176.881 56.04C176.881 48.424 178.769 42.472 182.545 38.184C186.321 33.832 191.377 31.656 197.713 31.656ZM207.505 41.352C207.505 39.24 206.865 37.512 205.585 36.168C204.369 34.76 202.513 34.056 200.017 34.056C197.585 34.056 195.185 35.528 192.817 38.472C190.513 41.416 188.977 45.768 188.209 51.528C201.073 51.464 207.505 48.072 207.505 41.352ZM252.285 67.944C253.821 67.944 255.421 67.048 257.085 65.256L258.525 66.408C258.077 67.304 257.085 68.104 255.549 68.808C254.013 69.512 252.317 69.864 250.461 69.864C244.637 69.864 241.725 67.24 241.725 61.992C241.725 59.752 242.301 55.752 243.453 49.992C244.605 44.232 245.181 40.456 245.181 38.664C245.181 35.912 243.869 34.536 241.245 34.536C239.133 34.536 237.085 35.912 235.101 38.664C233.181 41.416 231.581 45.192 230.301 49.992L227.037 67.944C229.021 67.752 230.653 66.856 231.933 65.256L233.373 66.408C231.453 68.712 229.053 69.864 226.173 69.864C223.293 69.864 221.021 69.128 219.357 67.656C217.757 66.184 216.957 64.264 216.957 61.896C216.957 61 217.469 57.48 218.493 51.336L221.661 33.576C219.741 33.768 218.141 34.664 216.861 36.264L215.421 35.112C217.341 32.808 219.741 31.656 222.621 31.656C225.565 31.656 227.837 32.392 229.437 33.864C231.037 35.336 231.837 37.416 231.837 40.104V40.68C234.461 34.664 238.557 31.656 244.125 31.656C247.901 31.656 250.845 32.744 252.957 34.92C255.069 37.032 256.125 39.976 256.125 43.752C256.125 45.736 255.517 49.576 254.301 55.272C253.085 60.904 252.413 65.128 252.285 67.944ZM280.799 66.408C278.879 68.712 276.479 69.864 273.599 69.864C270.719 69.864 268.447 69.128 266.783 67.656C265.183 66.184 264.383 64.264 264.383 61.896C264.383 61.064 264.895 57.576 265.919 51.432L269.087 34.248H265.055L265.247 32.52H269.375C274.111 32.52 277.599 32.328 279.839 31.944L281.183 31.656L274.559 67.944C276.479 67.752 278.079 66.856 279.359 65.256L280.799 66.408ZM272.351 22.44C271.007 21.096 270.335 19.464 270.335 17.544C270.335 15.624 271.007 13.992 272.351 12.648C273.695 11.24 275.327 10.536 277.247 10.536C279.167 10.536 280.799 11.24 282.143 12.648C283.551 13.992 284.255 15.624 284.255 17.544C284.255 19.464 283.551 21.096 282.143 22.44C280.799 23.784 279.167 24.456 277.247 24.456C275.327 24.456 273.695 23.784 272.351 22.44ZM317.009 62.952C317.777 64.936 318.993 65.928 320.657 65.928C322.385 65.928 323.825 64.84 324.977 62.664L326.513 63.528C325.873 64.616 325.297 65.48 324.785 66.12C324.337 66.696 323.409 67.336 322.001 68.04C320.657 68.68 318.993 69 317.009 69C311.377 69 307.601 66.632 305.681 61.896L302.033 53.064C298.257 53.448 295.217 54.408 292.913 55.944H293.009C294.929 55.944 296.561 56.616 297.905 57.96C299.249 59.304 299.921 60.936 299.921 62.856C299.921 64.776 299.249 66.44 297.905 67.848C296.561 69.192 294.929 69.864 293.009 69.864C291.089 69.864 289.425 69.192 288.017 67.848C286.673 66.44 286.001 64.776 286.001 62.856C286.001 59.72 287.441 57.064 290.321 54.888C293.265 52.648 296.881 51.304 301.169 50.856L295.889 37.704C295.121 35.72 293.905 34.728 292.241 34.728C290.641 34.728 289.201 35.816 287.921 37.992L286.481 37.128C287.121 36.04 287.665 35.208 288.113 34.632C288.625 33.992 289.553 33.352 290.897 32.712C292.305 32.008 294.001 31.656 295.985 31.656C301.553 31.656 305.297 34.024 307.217 38.76L311.153 48.552C315.121 48.168 318.225 47.176 320.465 45.576H320.369C318.449 45.576 316.817 44.904 315.473 43.56C314.129 42.216 313.457 40.584 313.457 38.664C313.457 36.744 314.129 35.112 315.473 33.768C316.817 32.36 318.449 31.656 320.369 31.656C322.289 31.656 323.921 32.36 325.265 33.768C326.673 35.112 327.377 36.744 327.377 38.664C327.377 41.928 325.873 44.68 322.865 46.92C319.857 49.096 316.241 50.376 312.017 50.76L317.009 62.952ZM446.659 72.936C448.323 72.936 449.923 72.04 451.459 70.248L452.899 71.4C452.707 71.656 452.451 71.976 452.131 72.36C451.811 72.744 451.011 73.256 449.731 73.896C448.515 74.536 447.171 74.856 445.699 74.856C438.531 74.856 434.947 71.752 434.947 65.544C434.947 63.624 435.171 60.776 435.619 57C432.547 57.96 429.795 58.44 427.363 58.44C423.075 58.44 418.787 57.128 414.499 54.504C412.003 58.792 409.667 62.472 407.491 65.544C405.315 68.552 402.787 71.496 399.907 74.376C393.955 80.2 386.755 83.112 378.307 83.112C369.923 83.112 363.235 80.424 358.243 75.048C353.827 70.12 351.619 64.136 351.619 57.096C351.619 49.992 353.891 43.688 358.435 38.184C362.979 32.68 368.867 29.928 376.099 29.928C383.331 29.928 388.835 32.072 392.611 36.36C393.507 37.512 394.147 38.376 394.531 38.952C397.987 40.424 401.923 42.856 406.339 46.248C409.667 48.936 412.131 50.792 413.731 51.816C414.627 50.152 415.843 47.912 417.379 45.096C418.979 42.28 420.195 40.136 421.027 38.664C421.859 37.192 423.107 35.112 424.771 32.424C426.435 29.736 427.779 27.72 428.803 26.376C429.891 24.968 431.299 23.24 433.027 21.192C434.819 19.08 436.451 17.512 437.923 16.488C442.339 13.352 446.051 11.528 449.059 11.016C450.723 10.76 452.131 10.632 453.283 10.632C454.435 10.632 455.715 10.664 457.123 10.728C458.531 10.728 460.515 11.08 463.075 11.784L462.595 13.608C461.059 13.16 459.427 12.84 457.699 12.648C451.299 37.8 447.619 57.896 446.659 72.936ZM397.603 50.088C397.603 54.824 396.227 59.016 393.475 62.664C390.787 66.312 387.139 68.136 382.531 68.136C379.523 68.136 377.059 67.24 375.139 65.448C373.283 63.656 372.355 61.8 372.355 59.88C372.355 57.96 372.643 56.392 373.219 55.176C373.795 53.896 374.435 52.936 375.139 52.296C375.907 51.656 376.739 51.144 377.635 50.76C378.851 50.12 379.811 49.8 380.515 49.8L380.707 51.72C379.107 51.72 377.635 52.488 376.291 54.024C374.947 55.56 374.275 57.288 374.275 59.208C374.275 61.128 375.011 62.792 376.483 64.2C378.019 65.544 380.035 66.216 382.531 66.216C386.627 66.216 389.859 64.616 392.227 61.416C394.595 58.216 395.779 54.664 395.779 50.76C395.779 46.856 394.979 43.464 393.379 40.584C389.859 39.24 386.371 38.568 382.915 38.568C376.259 38.568 371.555 41.672 368.803 47.88L366.979 47.304C367.683 45.704 368.803 43.976 370.339 42.12C373.347 38.472 377.539 36.648 382.915 36.648C385.795 36.648 388.643 37.064 391.459 37.896L391.267 37.608C387.747 33.768 382.659 31.848 376.003 31.848C369.411 31.848 364.003 34.408 359.779 39.528C355.619 44.648 353.539 50.536 353.539 57.192C353.539 63.784 355.587 69.288 359.683 73.704C364.291 78.696 370.723 81.192 378.979 81.192C386.531 81.192 393.123 78.344 398.755 72.648C401.571 69.896 404.003 67.048 406.051 64.104C408.163 61.16 410.435 57.608 412.867 53.448C410.691 52.04 408.035 50.12 404.899 47.688C401.827 45.192 398.851 43.208 395.971 41.736C397.059 44.424 397.603 47.208 397.603 50.088ZM415.459 52.872C419.555 55.304 423.299 56.52 426.691 56.52C430.147 56.52 433.219 55.976 435.907 54.888C437.443 44.072 440.323 30.632 444.547 14.568C439.427 17 434.723 21.32 430.435 27.528C427.299 32.008 423.523 38.248 419.107 46.248L415.459 52.872ZM481.739 69.768C478.795 69.768 476.459 69.096 474.731 67.752L471.851 83.208H460.427L469.451 32.904C467.531 33.096 465.931 33.992 464.651 35.592L463.211 34.44C465.131 32.136 467.499 30.984 470.315 30.984C473.195 30.984 475.435 31.688 477.035 33.096C478.635 34.44 479.499 36.36 479.627 38.856C482.443 34.056 486.027 31.656 490.379 31.656C494.731 31.656 498.059 32.904 500.363 35.4C502.667 37.832 503.819 41.192 503.819 45.48C503.819 53.032 501.771 58.984 497.675 63.336C493.579 67.624 488.267 69.768 481.739 69.768ZM475.403 63.912C476.491 66.344 478.539 67.56 481.547 67.56C484.619 67.56 487.275 65 489.515 59.88C491.819 54.76 492.971 48.648 492.971 41.544C492.971 38.6 492.651 36.584 492.011 35.496C491.435 34.408 490.347 33.864 488.747 33.864C487.147 33.864 485.483 34.824 483.755 36.744C482.091 38.664 480.875 40.488 480.107 42.216C479.339 43.88 478.955 44.84 478.955 45.096H478.859L475.403 63.912ZM527.677 69.768C524.733 69.768 522.397 69.096 520.669 67.752L517.789 83.208H506.365L515.389 32.904C513.469 33.096 511.869 33.992 510.589 35.592L509.148 34.44C511.069 32.136 513.437 30.984 516.253 30.984C519.133 30.984 521.373 31.688 522.973 33.096C524.573 34.44 525.437 36.36 525.565 38.856C528.381 34.056 531.965 31.656 536.317 31.656C540.669 31.656 543.997 32.904 546.301 35.4C548.605 37.832 549.757 41.192 549.757 45.48C549.757 53.032 547.709 58.984 543.613 63.336C539.517 67.624 534.205 69.768 527.677 69.768ZM521.341 63.912C522.429 66.344 524.477 67.56 527.484 67.56C530.557 67.56 533.213 65 535.453 59.88C537.757 54.76 538.909 48.648 538.909 41.544C538.909 38.6 538.589 36.584 537.949 35.496C537.373 34.408 536.285 33.864 534.685 33.864C533.085 33.864 531.421 34.824 529.693 36.744C528.029 38.664 526.813 40.488 526.045 42.216C525.277 43.88 524.893 44.84 524.893 45.096H524.797L521.341 63.912Z" fill="white"/>
</svg>
