<svg width="85" height="89" viewBox="0 0 85 89" fill="none" xmlns="http://www.w3.org/2000/svg">
<path d="M35.312 80.04C31.216 82.472 26.8 83.688 22.064 83.688C17.328 83.688 13.712 82.92 11.216 81.384C8.72 79.912 7.472 78.024 7.472 75.72C7.472 73.48 8.368 71.656 10.16 70.248C12.016 68.904 14.768 68.232 18.416 68.232C23.408 68.232 27.888 70.088 31.856 73.8C32.624 71.432 33.264 68.808 33.776 65.928L34.352 62.376H30.32V60.264H34.736L42.032 18.6C42.352 16.232 42.8 14.312 43.376 12.84C30.128 13.864 19.888 16.68 12.656 21.288C5.488 25.832 1.904 31.816 1.904 39.24C1.904 42.568 3.056 45.384 5.36 47.688C6.96 49.224 9.072 50.408 11.696 51.24C14.32 52.008 16.464 52.456 18.128 52.584C19.856 52.648 20.784 52.616 20.912 52.488V54.504C13.36 54.504 7.76 52.712 4.112 49.128C1.424 46.632 0.0800004 43.336 0.0800004 39.24C0.0800004 31.112 3.888 24.616 11.504 19.752C19.12 14.824 30 11.88 44.144 10.92C47.152 4.2 52.752 0.839996 60.944 0.839996V3.336C59.344 3.528 58.224 4.168 57.584 5.256C57.008 6.344 56.496 8.104 56.048 10.536C61.36 10.6 65.904 11.272 69.68 12.552C73.52 13.768 76.432 15.4 78.416 17.448C82.192 21.352 84.08 25.928 84.08 31.176C84.08 35.208 83.312 38.888 81.776 42.216C80.304 45.48 78.416 48.168 76.112 50.28C73.808 52.392 70.992 54.216 67.664 55.752C62.16 58.376 55.536 60.232 47.792 61.32V61.512C46.448 69 42.864 74.792 37.04 78.888C39.664 81.256 42.544 83.112 45.68 84.456C48.816 85.8 52.848 86.472 57.776 86.472V88.584C52.464 88.584 48.08 87.816 44.624 86.28C41.232 84.808 38.128 82.728 35.312 80.04ZM81.584 31.176C81.584 25.544 79.44 21.032 75.152 17.64C70.928 14.248 64.496 12.488 55.856 12.36C53.488 29.768 50.96 45.352 48.272 59.112C70.48 55.912 81.584 46.6 81.584 31.176ZM31.088 75.912C29.04 73.992 27.088 72.52 25.232 71.496C23.376 70.536 21.104 70.056 18.416 70.056C15.792 70.056 13.68 70.536 12.08 71.496C10.544 72.52 9.776 73.896 9.776 75.624C9.776 77.416 10.8 78.888 12.848 80.04C14.896 81.256 17.36 81.864 20.24 81.864C23.12 81.864 25.392 81.448 27.056 80.616C28.784 79.784 30.128 78.216 31.088 75.912Z" fill="#F05A22"/>
</svg>
